<mxfile host="app.diagrams.net" agent="Mozilla/5.0 (Windows NT 10.0; Win64; x64) AppleWebKit/537.36 (KHTML, like Gecko) Chrome/133.0.0.0 Safari/537.36" version="26.1.0">
  <diagram id="C5RBs43oDa-KdzZeNtuy" name="Page-1">
    <mxGraphModel dx="1246" dy="984" grid="1" gridSize="10" guides="1" tooltips="1" connect="1" arrows="1" fold="1" page="1" pageScale="1" pageWidth="827" pageHeight="1169" math="0" shadow="0">
      <root>
        <mxCell id="WIyWlLk6GJQsqaUBKTNV-0" />
        <mxCell id="WIyWlLk6GJQsqaUBKTNV-1" parent="WIyWlLk6GJQsqaUBKTNV-0" />
        <mxCell id="sSDH35V1kmgVV1mzI_Ks-10" style="edgeStyle=orthogonalEdgeStyle;rounded=0;orthogonalLoop=1;jettySize=auto;html=1;exitX=0.5;exitY=1;exitDx=0;exitDy=0;entryX=0.5;entryY=0;entryDx=0;entryDy=0;" edge="1" parent="WIyWlLk6GJQsqaUBKTNV-1" source="sSDH35V1kmgVV1mzI_Ks-0" target="sSDH35V1kmgVV1mzI_Ks-1">
          <mxGeometry relative="1" as="geometry" />
        </mxCell>
        <mxCell id="sSDH35V1kmgVV1mzI_Ks-0" value="Start" style="ellipse;whiteSpace=wrap;html=1;" vertex="1" parent="WIyWlLk6GJQsqaUBKTNV-1">
          <mxGeometry x="460" y="70" width="120" height="80" as="geometry" />
        </mxCell>
        <mxCell id="sSDH35V1kmgVV1mzI_Ks-11" style="edgeStyle=orthogonalEdgeStyle;rounded=0;orthogonalLoop=1;jettySize=auto;html=1;exitX=0.5;exitY=1;exitDx=0;exitDy=0;entryX=0.5;entryY=0;entryDx=0;entryDy=0;" edge="1" parent="WIyWlLk6GJQsqaUBKTNV-1" source="sSDH35V1kmgVV1mzI_Ks-1" target="sSDH35V1kmgVV1mzI_Ks-2">
          <mxGeometry relative="1" as="geometry" />
        </mxCell>
        <mxCell id="sSDH35V1kmgVV1mzI_Ks-1" value="User Click Button" style="shape=parallelogram;perimeter=parallelogramPerimeter;whiteSpace=wrap;html=1;fixedSize=1;" vertex="1" parent="WIyWlLk6GJQsqaUBKTNV-1">
          <mxGeometry x="460" y="190" width="120" height="60" as="geometry" />
        </mxCell>
        <mxCell id="sSDH35V1kmgVV1mzI_Ks-30" style="edgeStyle=orthogonalEdgeStyle;rounded=0;orthogonalLoop=1;jettySize=auto;html=1;exitX=1;exitY=0.5;exitDx=0;exitDy=0;entryX=0;entryY=0.5;entryDx=0;entryDy=0;" edge="1" parent="WIyWlLk6GJQsqaUBKTNV-1" source="sSDH35V1kmgVV1mzI_Ks-2" target="sSDH35V1kmgVV1mzI_Ks-24">
          <mxGeometry relative="1" as="geometry" />
        </mxCell>
        <mxCell id="sSDH35V1kmgVV1mzI_Ks-31" value="If Number/Operator" style="edgeLabel;html=1;align=center;verticalAlign=middle;resizable=0;points=[];" vertex="1" connectable="0" parent="sSDH35V1kmgVV1mzI_Ks-30">
          <mxGeometry x="-0.04" y="1" relative="1" as="geometry">
            <mxPoint as="offset" />
          </mxGeometry>
        </mxCell>
        <mxCell id="sSDH35V1kmgVV1mzI_Ks-33" value="" style="edgeStyle=orthogonalEdgeStyle;rounded=0;orthogonalLoop=1;jettySize=auto;html=1;" edge="1" parent="WIyWlLk6GJQsqaUBKTNV-1" source="sSDH35V1kmgVV1mzI_Ks-2" target="sSDH35V1kmgVV1mzI_Ks-32">
          <mxGeometry relative="1" as="geometry" />
        </mxCell>
        <mxCell id="sSDH35V1kmgVV1mzI_Ks-34" value="If &quot;=&quot;" style="edgeLabel;html=1;align=center;verticalAlign=middle;resizable=0;points=[];" vertex="1" connectable="0" parent="sSDH35V1kmgVV1mzI_Ks-33">
          <mxGeometry x="-0.05" y="3" relative="1" as="geometry">
            <mxPoint as="offset" />
          </mxGeometry>
        </mxCell>
        <mxCell id="sSDH35V1kmgVV1mzI_Ks-42" value="" style="edgeStyle=orthogonalEdgeStyle;rounded=0;orthogonalLoop=1;jettySize=auto;html=1;" edge="1" parent="WIyWlLk6GJQsqaUBKTNV-1" source="sSDH35V1kmgVV1mzI_Ks-2" target="sSDH35V1kmgVV1mzI_Ks-41">
          <mxGeometry relative="1" as="geometry" />
        </mxCell>
        <mxCell id="sSDH35V1kmgVV1mzI_Ks-43" value="If &quot;C&quot;" style="edgeLabel;html=1;align=center;verticalAlign=middle;resizable=0;points=[];" vertex="1" connectable="0" parent="sSDH35V1kmgVV1mzI_Ks-42">
          <mxGeometry y="1" relative="1" as="geometry">
            <mxPoint as="offset" />
          </mxGeometry>
        </mxCell>
        <mxCell id="sSDH35V1kmgVV1mzI_Ks-2" value="Check Button Type" style="rhombus;whiteSpace=wrap;html=1;" vertex="1" parent="WIyWlLk6GJQsqaUBKTNV-1">
          <mxGeometry x="480" y="290" width="80" height="80" as="geometry" />
        </mxCell>
        <mxCell id="sSDH35V1kmgVV1mzI_Ks-27" value="" style="edgeStyle=orthogonalEdgeStyle;rounded=0;orthogonalLoop=1;jettySize=auto;html=1;" edge="1" parent="WIyWlLk6GJQsqaUBKTNV-1" source="sSDH35V1kmgVV1mzI_Ks-24" target="sSDH35V1kmgVV1mzI_Ks-26">
          <mxGeometry relative="1" as="geometry" />
        </mxCell>
        <mxCell id="sSDH35V1kmgVV1mzI_Ks-24" value="Add to expression" style="whiteSpace=wrap;html=1;" vertex="1" parent="WIyWlLk6GJQsqaUBKTNV-1">
          <mxGeometry x="690" y="300" width="120" height="60" as="geometry" />
        </mxCell>
        <mxCell id="sSDH35V1kmgVV1mzI_Ks-26" value="Update Display" style="shape=parallelogram;perimeter=parallelogramPerimeter;whiteSpace=wrap;html=1;fixedSize=1;" vertex="1" parent="WIyWlLk6GJQsqaUBKTNV-1">
          <mxGeometry x="860" y="300" width="120" height="60" as="geometry" />
        </mxCell>
        <mxCell id="sSDH35V1kmgVV1mzI_Ks-36" value="" style="edgeStyle=orthogonalEdgeStyle;rounded=0;orthogonalLoop=1;jettySize=auto;html=1;" edge="1" parent="WIyWlLk6GJQsqaUBKTNV-1" source="sSDH35V1kmgVV1mzI_Ks-32" target="sSDH35V1kmgVV1mzI_Ks-35">
          <mxGeometry relative="1" as="geometry" />
        </mxCell>
        <mxCell id="sSDH35V1kmgVV1mzI_Ks-40" value="Yes" style="edgeLabel;html=1;align=center;verticalAlign=middle;resizable=0;points=[];" vertex="1" connectable="0" parent="sSDH35V1kmgVV1mzI_Ks-36">
          <mxGeometry x="-0.3143" relative="1" as="geometry">
            <mxPoint as="offset" />
          </mxGeometry>
        </mxCell>
        <mxCell id="sSDH35V1kmgVV1mzI_Ks-38" value="" style="edgeStyle=orthogonalEdgeStyle;rounded=0;orthogonalLoop=1;jettySize=auto;html=1;" edge="1" parent="WIyWlLk6GJQsqaUBKTNV-1" source="sSDH35V1kmgVV1mzI_Ks-32" target="sSDH35V1kmgVV1mzI_Ks-37">
          <mxGeometry relative="1" as="geometry" />
        </mxCell>
        <mxCell id="sSDH35V1kmgVV1mzI_Ks-39" value="No" style="edgeLabel;html=1;align=center;verticalAlign=middle;resizable=0;points=[];" vertex="1" connectable="0" parent="sSDH35V1kmgVV1mzI_Ks-38">
          <mxGeometry x="0.0286" relative="1" as="geometry">
            <mxPoint as="offset" />
          </mxGeometry>
        </mxCell>
        <mxCell id="sSDH35V1kmgVV1mzI_Ks-32" value="Valid Expression?" style="rhombus;whiteSpace=wrap;html=1;" vertex="1" parent="WIyWlLk6GJQsqaUBKTNV-1">
          <mxGeometry x="320" y="290" width="80" height="80" as="geometry" />
        </mxCell>
        <mxCell id="sSDH35V1kmgVV1mzI_Ks-35" value="Compute result" style="whiteSpace=wrap;html=1;" vertex="1" parent="WIyWlLk6GJQsqaUBKTNV-1">
          <mxGeometry x="300" y="440" width="120" height="60" as="geometry" />
        </mxCell>
        <mxCell id="sSDH35V1kmgVV1mzI_Ks-37" value="Show Error Message" style="shape=parallelogram;perimeter=parallelogramPerimeter;whiteSpace=wrap;html=1;fixedSize=1;" vertex="1" parent="WIyWlLk6GJQsqaUBKTNV-1">
          <mxGeometry x="110" y="300" width="150" height="60" as="geometry" />
        </mxCell>
        <mxCell id="sSDH35V1kmgVV1mzI_Ks-44" style="edgeStyle=orthogonalEdgeStyle;rounded=0;orthogonalLoop=1;jettySize=auto;html=1;exitX=1;exitY=0.5;exitDx=0;exitDy=0;entryX=0.5;entryY=1;entryDx=0;entryDy=0;" edge="1" parent="WIyWlLk6GJQsqaUBKTNV-1" source="sSDH35V1kmgVV1mzI_Ks-41" target="sSDH35V1kmgVV1mzI_Ks-26">
          <mxGeometry relative="1" as="geometry" />
        </mxCell>
        <mxCell id="sSDH35V1kmgVV1mzI_Ks-46" value="" style="edgeStyle=orthogonalEdgeStyle;rounded=0;orthogonalLoop=1;jettySize=auto;html=1;" edge="1" parent="WIyWlLk6GJQsqaUBKTNV-1" source="sSDH35V1kmgVV1mzI_Ks-41" target="sSDH35V1kmgVV1mzI_Ks-45">
          <mxGeometry relative="1" as="geometry" />
        </mxCell>
        <mxCell id="sSDH35V1kmgVV1mzI_Ks-47" value="If &quot;S&quot;" style="edgeLabel;html=1;align=center;verticalAlign=middle;resizable=0;points=[];" vertex="1" connectable="0" parent="sSDH35V1kmgVV1mzI_Ks-46">
          <mxGeometry x="-0.225" y="1" relative="1" as="geometry">
            <mxPoint as="offset" />
          </mxGeometry>
        </mxCell>
        <mxCell id="sSDH35V1kmgVV1mzI_Ks-41" value="Clear expression" style="whiteSpace=wrap;html=1;" vertex="1" parent="WIyWlLk6GJQsqaUBKTNV-1">
          <mxGeometry x="460" y="460" width="120" height="60" as="geometry" />
        </mxCell>
        <mxCell id="sSDH35V1kmgVV1mzI_Ks-48" style="edgeStyle=orthogonalEdgeStyle;rounded=0;orthogonalLoop=1;jettySize=auto;html=1;exitX=1;exitY=0.5;exitDx=0;exitDy=0;entryX=0.5;entryY=1;entryDx=0;entryDy=0;" edge="1" parent="WIyWlLk6GJQsqaUBKTNV-1" source="sSDH35V1kmgVV1mzI_Ks-45" target="sSDH35V1kmgVV1mzI_Ks-26">
          <mxGeometry relative="1" as="geometry" />
        </mxCell>
        <mxCell id="sSDH35V1kmgVV1mzI_Ks-50" value="" style="edgeStyle=orthogonalEdgeStyle;rounded=0;orthogonalLoop=1;jettySize=auto;html=1;" edge="1" parent="WIyWlLk6GJQsqaUBKTNV-1" source="sSDH35V1kmgVV1mzI_Ks-45" target="sSDH35V1kmgVV1mzI_Ks-49">
          <mxGeometry relative="1" as="geometry" />
        </mxCell>
        <mxCell id="sSDH35V1kmgVV1mzI_Ks-51" value="If &quot;H&quot;" style="edgeLabel;html=1;align=center;verticalAlign=middle;resizable=0;points=[];" vertex="1" connectable="0" parent="sSDH35V1kmgVV1mzI_Ks-50">
          <mxGeometry x="-0.3" y="2" relative="1" as="geometry">
            <mxPoint as="offset" />
          </mxGeometry>
        </mxCell>
        <mxCell id="sSDH35V1kmgVV1mzI_Ks-45" value="Scientific Calc Mode" style="whiteSpace=wrap;html=1;" vertex="1" parent="WIyWlLk6GJQsqaUBKTNV-1">
          <mxGeometry x="460" y="600" width="120" height="60" as="geometry" />
        </mxCell>
        <mxCell id="sSDH35V1kmgVV1mzI_Ks-52" style="edgeStyle=orthogonalEdgeStyle;rounded=0;orthogonalLoop=1;jettySize=auto;html=1;exitX=1;exitY=0.5;exitDx=0;exitDy=0;entryX=0.5;entryY=1;entryDx=0;entryDy=0;" edge="1" parent="WIyWlLk6GJQsqaUBKTNV-1" source="sSDH35V1kmgVV1mzI_Ks-49" target="sSDH35V1kmgVV1mzI_Ks-26">
          <mxGeometry relative="1" as="geometry" />
        </mxCell>
        <mxCell id="sSDH35V1kmgVV1mzI_Ks-54" style="edgeStyle=orthogonalEdgeStyle;rounded=0;orthogonalLoop=1;jettySize=auto;html=1;exitX=0.5;exitY=1;exitDx=0;exitDy=0;entryX=0.5;entryY=0;entryDx=0;entryDy=0;" edge="1" parent="WIyWlLk6GJQsqaUBKTNV-1" source="sSDH35V1kmgVV1mzI_Ks-49" target="sSDH35V1kmgVV1mzI_Ks-53">
          <mxGeometry relative="1" as="geometry" />
        </mxCell>
        <mxCell id="sSDH35V1kmgVV1mzI_Ks-49" value="Show Calc History" style="whiteSpace=wrap;html=1;" vertex="1" parent="WIyWlLk6GJQsqaUBKTNV-1">
          <mxGeometry x="460" y="740" width="120" height="60" as="geometry" />
        </mxCell>
        <mxCell id="sSDH35V1kmgVV1mzI_Ks-53" value="End" style="ellipse;whiteSpace=wrap;html=1;" vertex="1" parent="WIyWlLk6GJQsqaUBKTNV-1">
          <mxGeometry x="460" y="840" width="120" height="80" as="geometry" />
        </mxCell>
      </root>
    </mxGraphModel>
  </diagram>
</mxfile>
